/* XPM */
static char *ee054e0d35ec4448a3d30f3d7c8d51c9w2yQ0argKIjV1cFT[] = {
/* columns rows colors chars-per-pixel */
"32 32 57 1 ",
"  c #67B346",
". c #6DB748",
"X c #66B849",
"o c #6BB949",
"O c #6EBB49",
"+ c #74B744",
"@ c #72B846",
"# c #7DBA43",
"$ c #79BA44",
"% c #7BBC46",
"& c #74BA48",
"* c #77BC48",
"= c #78BB48",
"- c #7ABD4A",
"; c #7EBD48",
": c #7DC04C",
"> c #7FC450",
", c #82BD47",
"< c #84BE46",
"1 c #8DBF44",
"2 c #81BE49",
"3 c #83BE48",
"4 c #80BF4C",
"5 c #8ABF49",
"6 c #8EBF49",
"7 c #87C146",
"8 c #88C345",
"9 c #8CC344",
"0 c #89C446",
"q c #8CC447",
"w c #82C24A",
"e c #85C04A",
"r c #87C44B",
"t c #82C14E",
"y c #86C14D",
"u c #80C44D",
"i c #87C44F",
"p c #89C34A",
"a c #8CC24A",
"s c #88C44A",
"d c #8CC449",
"f c #8BC24D",
"g c #8DC24C",
"h c #8BC54D",
"j c #8DC44D",
"k c #92C046",
"l c #90C249",
"z c #90C74F",
"x c #86C550",
"c c #8BC851",
"v c #EAE178",
"b c #5C4E92",
"n c #766DAA",
"m c #E8B5AC",
"M c #DDD5DE",
"N c #F3D8C5",
"B c #F3F2C0",
/* pixels */
"faapfhhdpppaaaaaappppppgaaaapp00",
"ppappfp1ppapaappppppaaaapppppaad",
"spqaffalppppppppppppajaprhhfggga",
"ppdpy4yfpppppppppaaaaaapsaaaaafg",
"fagy=@*:ppppppaapaja88pp9999ppps",
"gggy-&-uppppppaapaja8ahigaaaapss",
"gpahityjppppaaaapaaaphy;::tpppp8",
"s88ajp6kaapppaaappppsh;+XO*:epaa",
"aappppaalaabbb00ajbbbpee$$3yhppd",
"aaapppaappbBBBbapbBBBbpstwehjppj",
"aappppaappbmmBbbbbBmmbpphfpgpppa",
"aappppaaaabmmBMMMMBmmb5pappppppp",
"apppappaa6bBBBMMMMBBBbpja8aaappa",
"appppppaggbBBBMMMMBBBb<eaaaaaaap",
"pppppppp:bbBBBBBBBBBBbb3aapppppp",
"ppppppppoObBbBBBBBBbBbwigggppaaa",
"papppppp-bbBBBBBBBBBBbb9pppppppp",
"aapppppptwbNNBBBBBBNNbp7ppppaapa",
"aaaaaapphppbbnnnnnnbbppfppaaaaaa",
"aaaaaaapppbMBnnvBnnBMbphpppaaaaa",
"aaaaaaaaaabMBBBvvBBBMbppaaaappaa",
"aaapaappaaabbBBBBBBbbz81aaaapaaa",
"aappppppaappbMMbbMMb:cpappppppaa",
"aappppppppppsbbatbb .>edppppppaa",
"papaphhxppppppppy;$%wrp8pppppppa",
"sappppe3pppppppphewefhaapppppppa",
"sppppp3#apppppaaagghgaaaaapppppp",
"ppppagp,appppppa9aaaapaaaaappppp",
"ppappahpaappppaaapdpsssaaappppap",
"ppaa8pagaappppaassp8psspaappppaa",
"paa88pppaaapppaapgap8pppapppaaaa",
"paa8pdaaaappppaapggaaaaappppaaaa"
};
