/* XPM */
static char *_ea2b2f4eb654fa1c99ae666f782ecc1rRrDBHwL4xAfcIgV[] = {
/* columns rows colors chars-per-pixel */
"32 32 69 1 ",
"  c #6B1A2A",
". c #7F1C29",
"X c #3E5428",
"o c #495D2B",
"O c #55672E",
"+ c #981E27",
"@ c #83252D",
"# c #9A292D",
"$ c #B72C28",
"% c #D33A29",
"& c #DD5539",
"* c #E4714B",
"= c #6D8433",
"- c #67B346",
"; c #6DB748",
": c #66B849",
"> c #6BB949",
", c #6EBB49",
"< c #74B744",
"1 c #72B846",
"2 c #75BA46",
"3 c #7DBA43",
"4 c #79BA44",
"5 c #7BBC46",
"6 c #7FBC45",
"7 c #74BA48",
"8 c #72BC4B",
"9 c #77BC48",
"0 c #78BB48",
"q c #7ABD4A",
"w c #7EBD48",
"e c #7DC04C",
"r c #7FC450",
"t c #82BD47",
"y c #84BE46",
"u c #8DBF44",
"i c #81BE49",
"p c #83BE48",
"a c #80BF4C",
"s c #88BF48",
"d c #8EBF49",
"f c #E9865B",
"g c #87C146",
"h c #88C345",
"j c #8CC344",
"k c #89C446",
"l c #8CC447",
"z c #82C24A",
"x c #86C14B",
"c c #87C44B",
"v c #82C14E",
"b c #86C14D",
"n c #80C44D",
"m c #87C44F",
"M c #89C34A",
"N c #8CC24A",
"B c #88C44A",
"V c #8CC449",
"C c #8BC24D",
"Z c #8DC24C",
"A c #8BC54D",
"S c #8DC44D",
"D c #92C046",
"F c #90C249",
"G c #91C44B",
"H c #90C74F",
"J c #81C450",
"K c #86C550",
"L c #8BC851",
/* pixels */
"CNNMCAAVMMMNNNNNNMMMMMMZNNNNMMkk",
"MMNMMCMuMMNMNNMMMMMMNNNNMMMMMNNV",
"BMlNCCNFMMMMMMMMMMMMNSNMcAACZZZN",
"MMVMbabCMMMMMMMMMNNNNNNMBNNNNMCZ",
"CNZb019eMMMMMMNNMNSNhjMMjjjjMMMB",
"ZZZbq7qnMMMMMMNNxNSNhNAmZNNNNMBB",
"ZMNAmvbSMMMMNNNNMNNNMAbweevMMMMh",
"BhhNSMdDNNMMMNNNMMMMBAw<:,9exMNN",
"NNMMMMNNFNNo=hkkNSMMMMxx44pbAMMV",
"NNNMMMNNMMMXOANNMNMMSSMMvzxASMMS",
"NNMMMMNNMMAoC=NMMNMMNNMMACMZMMMN",
"NNMMMMNNNNZOMM==MNMNSNsMNMMMMMMM",
"NMMMNMMNNdNXhMMB=MMNSZMSNhNNNMMN",
"NMMMMMMNZZNNOMMBM=MMMsyxNNNNNNNM",
"MMMMMMMMevbMXMMMNN=MMt6pNNMMMMMM",
"MMMMMMMM>,qzxONN+$o*%xzmZZZMMNNN",
"MNMMMMMMq5p$%Xf&.+$$*%VjMMMMMMMM",
"NNMMMMMMvz#$$$%f&+++$%MgMMMMNNMN",
"NNNNNNMMAM#$$$$%&+++$%MCMMNNNNNN",
"NNNNNNNMMM@#$$$%&.++$NMAMMMNNNNN",
"NNNNNNNNNNN@#$%&M .$jGMMNNNNMMNN",
"NNNMNNMMNNNM@##NMxSMBHhuNNNNMNNN",
"NNMMMMMMNNMMMMMNmpJqeLMNMMMMMMNN",
"NNMMMMMMMMMMBNNNv28-;rxVMMMMMMNN",
"MNMNMAAKMMMMMMMMbw45zcMhMMMMMMMN",
"BNMMMMxpMMMMMMMMAxzxCANNMMMMMMMN",
"BMMMMMp3NMMMMMNNNZZAZNNNNNMMMMMM",
"MMMMNZMtNMMMMMMNjNNNNMNNNNNMMMMM",
"MMNMMNAMNNMMMMNNNMVMBBBNNNMMMMNM",
"MMNNhMNZNNMMMMNNBBMhMBBMNNMMMMNN",
"MNNhhMMMNNNMMMNNMZNMhMMMNMMMNNNN",
"MNNhMVNNNNMMMMNNMZZNNNNNMMMMNNNN"
};
