/* XPM */
static char *c6815cdbe48548f9e4925272dc5441e1WanoAJMUwwWqCbJF[] = {
/* columns rows colors chars-per-pixel */
"32 32 117 2 ",
"   c #7E545F",
".  c #76595F",
"X  c #767058",
"o  c #79735A",
"O  c #7A745C",
"+  c #7D7858",
"@  c #7D5360",
"#  c #7D5460",
"$  c #855A5E",
"%  c #90625D",
"&  c #926F5B",
"*  c #817258",
"=  c #84725A",
"-  c #887F58",
";  c #8C795F",
":  c #A0705A",
">  c #A0725D",
",  c #8D6360",
"<  c #8F6562",
"1  c #916763",
"2  c #916764",
"3  c #926965",
"4  c #9C7060",
"5  c #A07260",
"6  c #A37762",
"7  c #A67D67",
"8  c #7E8F56",
"9  c #7E8759",
"0  c #76A952",
"q  c #7BAA52",
"w  c #7EAB53",
"e  c #7DA559",
"r  c #7DB050",
"t  c #8B8556",
"y  c #8C8557",
"u  c #8B8058",
"i  c #8C8059",
"p  c #958C55",
"a  c #9A8C55",
"s  c #809552",
"d  c #839552",
"f  c #8B9F52",
"g  c #8D9D52",
"h  c #8F965A",
"j  c #9E9453",
"k  c #9F9554",
"l  c #909E51",
"z  c #909659",
"x  c #92985A",
"c  c #A18E5C",
"v  c #8DBF44",
"b  c #86B04F",
"n  c #87BB4B",
"m  c #86BD4B",
"M  c #83B94C",
"N  c #86B84E",
"B  c #8ABF4E",
"V  c #89A252",
"C  c #8AA354",
"Z  c #80A75A",
"A  c #83A95B",
"S  c #85AB5B",
"D  c #89AD5C",
"F  c #8CAF5E",
"G  c #80B250",
"H  c #84B351",
"J  c #83B553",
"K  c #84B452",
"L  c #81B454",
"P  c #8FB15F",
"I  c #95B75F",
"U  c #A0A25E",
"Y  c #AD8267",
"T  c #AC836E",
"R  c #B38560",
"E  c #BA8D64",
"W  c #B29B62",
"Q  c #BE9368",
"!  c #8DAA60",
"~  c #9DAA6A",
"^  c #8FB260",
"/  c #93B461",
"(  c #9BBB61",
")  c #9EBC63",
"_  c #9EBC64",
"`  c #A5A561",
"'  c #BAA772",
"]  c #B7B077",
"[  c #C0966A",
"{  c #C2986B",
"}  c #C49A6C",
"|  c #C19976",
" . c #C09879",
".. c #D3AD7F",
"X. c #88C345",
"o. c #89C446",
"O. c #8CC447",
"+. c #86C14B",
"@. c #89C34A",
"#. c #8CC24A",
"$. c #88C44A",
"%. c #8CC449",
"&. c #8BC24D",
"*. c #8DC24C",
"=. c #8BC54D",
"-. c #8DC44C",
";. c #A4C263",
":. c #A5C265",
">. c #AEC968",
",. c #B6CD6B",
"<. c #C0D470",
"1. c #D0AE89",
"2. c #DCB98A",
"3. c #E5CA9F",
"4. c #EAD4AD",
"5. c #ECD7B0",
"6. c #EFDCB8",
/* pixels */
"&.#.#.@.&.=.=.%.@.@.@.@.g g T T T T f f @.@.@.*.#.#.#.#.@.@.o.o.",
"@.@.#.@.@.&.@.v @.@.y y  . .2.2.2.2. . .y y #.#.@.@.@.@.@.#.#.%.",
"$.@.O.#.&.&.g l T T 2.2.] ] P D D ^ ] ] 2.2.T T V f =.&.*.*.*.#.",
"@.@.%.@.t t  . .2.2.~ ~ P e ,.;.;.,.e P ~ ~ 2.2. . .y y #.@.*.*.",
"&.#.*.t 2.2.] ] D A / <.( e :.I I :.Z ( <./ A D ] ] 2.2.y @.$.$.",
"*.*.*.y ' ~ Z / >.I F >.( e ,.;.;.,.Z ( >.D I >./ Z ~ ' y @.$.$.",
"*.@.#.=.9 ! S _ >.I / <.( e :.I I :.Z ( <./ I >.) S ! 9 @.@.@.X.",
"$.X.X.#.w ! S _ >.I F >.( e ,.;.;.,.Z ( >.D I >.) S ! 0 +.@.#.#.",
"@.@.@.@.w ! S _ >.I / <.U h | | | | z U <./ I >.) S ! q =.@.@.%.",
"@.@.@.@.w ! S _ >.I c W 1.1.6.6.6.6.1.1.W c I >.) S ! w -.@.@.-.",
"@.@.@.@.w ! x ` | | 5.5.4.4.2.2.2.2.4.4.5.5.| | ` z ! w #.@.@.#.",
"#.@.@.@.a c 1.1.6.6.3.3.2.2.T T T T 2.2.3.3.6.6.1.1.c a @.@.@.@.",
"#.#.#.j 5.5.4.4.2.2. . .% % % % % % % %  . .2.2.4.4.5.5.k @.@.#.",
"#.#.#.p 3.3.2.2.T T % % % % % % % % % % % % T T 2.2.3.3.p #.@.@.",
"@.@.#.g  . .5 6 R R R R R R R R R R R R R R R R 6 5  . .g @.@.#.",
"@.@.@.@.g = [ } } } } } } } } } } } } } } } } } } [ * f @.#.#.#.",
"@.@.#.#.#.+ R R R R R R R R R R R R R R R R R R R R + @.@.@.#.#.",
"@.@.#.#.#.+ } } } } } } } } } } } } } } } } } } } } + @.@.@.#.#.",
"@.@.#.#.@.+ E Y     Y E E E 7 7 7 7 E E E Y     Y E + @.@.@.@.#.",
"@.@.#.#.@.+ E < % % < E E 4 $ $ $ $ 4 E E < % % < E + @.@.@.@.@.",
"@.@.@.@.@.+ } 3 6 6 3 } 7 $ % % % % $ 7 } 3 6 6 3 } + @.#.#.#.#.",
"@.@.@.@.@.+ R > ....> R 4 $ % % % % $ 4 R > ....> R + @.#.#.#.#.",
"#.#.@.@.@.+ } } } } } } 7 $ % % % % $ 7 } } } } } } + @.#.@.#.#.",
"#.#.@.@.@.+ } } } } } } 7 $ : : : : $ 7 } } } } } } + @.@.@.@.@.",
"@.#.#.#.@.=.O . , @ o o o & { Q Q { & X X o # , . o @.@.@.@.@.@.",
"$.#.#.#.@.@.r X Q 2 H H H u { Q Q { - r L J 1 Q o H @.@.@.@.@.@.",
"$.@.@.@.@.@.r X } 3 H H H u [ E E [ u J K H 3 } o H @.@.@.@.#.#.",
"@.@.@.@.#.*.G o } 3 H H H u [ E E [ i K H H 3 } o H @.@.@.@.@.#.",
"@.@.#.@.@.#.&.8 7 ; H H H u { Q Q { u J J J ; 7 d B @.@.@.@.#.#.",
"@.@.#.#.X.@.#.B d b B B N u { Q Q { u M m B b d B #.@.@.@.@.#.#.",
"@.#.#.X.X.@.@.@.@.@.@.@.B u [ E E [ u n X.@.@.@.#.#.#.@.@.@.#.#.",
"@.@.#.X.#.%.#.#.@.@.@.@.@.V 6 6 6 6 C *.#.#.#.#.#.#.@.@.@.@.#.#."
};
