/* XPM */
static char *e35c35d29f894ad08755fc94baba7531qgAYYTckicuQY7A5[] = {
/* columns rows colors chars-per-pixel */
"32 32 165 2 ",
"   c #67B346",
".  c #6DB748",
"X  c #66B849",
"o  c #6BB949",
"O  c #6EBB49",
"+  c #6CBA4A",
"@  c #74B744",
"#  c #72B846",
"$  c #75BA46",
"%  c #7DBA43",
"&  c #79BA44",
"*  c #7ABB45",
"=  c #78BB47",
"-  c #7BBC46",
";  c #7FBC45",
":  c #74BA48",
">  c #72BC4B",
",  c #77BC48",
"<  c #77BD49",
"1  c #77BD4B",
"2  c #78BB48",
"3  c #7ABD49",
"4  c #7ABD4A",
"5  c #79BE4A",
"6  c #7EBD48",
"7  c #7EBF4B",
"8  c #7FC04A",
"9  c #7DC04C",
"0  c #7FC04C",
"q  c #7DC24E",
"w  c #7FC24F",
"e  c #7FC450",
"r  c #82BD45",
"t  c #82BD47",
"y  c #84BE46",
"u  c #8DBF44",
"i  c #8CBF46",
"p  c #80BD48",
"a  c #81BE49",
"s  c #83BE48",
"d  c #82BF48",
"f  c #80BF4A",
"g  c #80BF4C",
"h  c #88BF48",
"j  c #8ABF49",
"k  c #8EBF49",
"l  c #87C146",
"z  c #8AC044",
"x  c #88C345",
"c  c #8AC046",
"v  c #8BC147",
"b  c #88C247",
"n  c #8BC346",
"m  c #8AC247",
"M  c #8DC145",
"N  c #8CC344",
"B  c #8DC047",
"V  c #8DC347",
"C  c #89C444",
"Z  c #89C446",
"A  c #8CC447",
"S  c #83C049",
"D  c #82C24A",
"F  c #87C148",
"G  c #87C149",
"H  c #87C349",
"J  c #85C04A",
"K  c #86C14B",
"L  c #85C24B",
"P  c #87C54A",
"I  c #87C44B",
"U  c #81C24C",
"Y  c #83C24D",
"T  c #82C14E",
"R  c #82C34F",
"E  c #85C04C",
"W  c #84C14C",
"Q  c #86C14D",
"!  c #85C24D",
"~  c #87C24C",
"^  c #86C34C",
"/  c #84C34E",
"(  c #86C34E",
")  c #80C44D",
"_  c #87C44D",
"`  c #87C44F",
"'  c #86C64E",
"]  c #89C048",
"[  c #89C049",
"{  c #8AC149",
"}  c #8BC149",
"|  c #89C348",
" . c #88C249",
".. c #8BC348",
"X. c #89C04B",
"o. c #8BC04A",
"O. c #8AC14A",
"+. c #88C24A",
"@. c #89C34A",
"#. c #88C34B",
"$. c #89C34B",
"%. c #8BC24A",
"&. c #8BC24B",
"*. c #8DC049",
"=. c #8EC148",
"-. c #8CC248",
";. c #8DC349",
":. c #8FC249",
">. c #8CC14B",
",. c #8FC04A",
"<. c #8EC14A",
"1. c #8EC14B",
"2. c #8CC24A",
"3. c #8CC34B",
"4. c #8DC34B",
"5. c #8FC24B",
"6. c #89C549",
"7. c #8AC449",
"8. c #88C44A",
"9. c #89C54B",
"0. c #8AC44B",
"q. c #8DC548",
"w. c #8CC449",
"e. c #8EC448",
"r. c #8DC54A",
"t. c #8EC44A",
"y. c #88C14C",
"u. c #8BC04C",
"i. c #89C24D",
"p. c #88C34D",
"a. c #8BC24D",
"s. c #8AC34E",
"d. c #8CC14D",
"f. c #8DC24C",
"g. c #8CC34C",
"h. c #8EC34D",
"j. c #8DC24E",
"k. c #8CC34E",
"l. c #8EC34F",
"z. c #89C44C",
"x. c #8AC44C",
"c. c #8BC54C",
"v. c #8AC54D",
"b. c #8BC54D",
"n. c #89C44E",
"m. c #88C54E",
"M. c #8BC44F",
"N. c #8AC54F",
"B. c #89C64F",
"V. c #8BC64E",
"C. c #8DC44C",
"Z. c #8DC44D",
"A. c #8EC44C",
"S. c #8FC44E",
"D. c #8EC54E",
"F. c #8DC74E",
"G. c #8DC74F",
"H. c #92C046",
"J. c #90C249",
"K. c #91C549",
"L. c #91C44B",
"P. c #90C74F",
"I. c #81C450",
"U. c #86C550",
"Y. c #8BC851",
/* pixels */
"a.2.2.@.a.b.b.w.@.@.@.2.2.2.2.2.2.@.@.@.@.@.@.f.2.2.2.2.@.@.Z Z ",
"@.@.2.@.@.a.@.u @.@.2.@.2.2.@.@.@.@.@.@.2.2.2.2.@.@.@.@.@.2.2.w.",
"8.@.A 2.a.a.2.J.@.@.@.@.@.@.@.@.@.@.@.@.2.Z.2.@.I b.b.a.f.f.f.2.",
"@.@.w.@.Q g Q a.@.@.@.@.@.@.@.@.@.2.2.2.2.2.2.@.8.2.2.2.2.@.a.f.",
"a.2.f.Q 2 # , 9 @.@.@.@.@.@.2.2.@.2.Z.2.x B @.@.B B B B x @.8.8.",
"f.f.f.Q 4 : 4 ) @.@.@.@.@.@.2.2.K 2.Z.2.x 2.b.` f.2.2.2.2.@.8.8.",
"f.@.2.b.` T Q Z.@.@.@.@.2.2.2.2.@.2.2.2.@.b.Q 6 9 9 T @.@.@.@.x ",
"8.x x 2.Z.@.k H.2.2.@.@.@.2.2.2.@.@.@.@.8.b.6 @ X O , 9 K @.2.2.",
"2.2.2.2.@.@.2.2.J.2.2.@.@.x Z Z 2.Z.@.@.@.@.K K & & a Q b.@.@.w.",
"2.2.2.@.@.@.@.2.@.@.@.@.@.b.2.2.@.2.@.@.Z.Z.@.@.T D K b.Z.@.@.Z.",
"2.2.@.@.@.@.2.2.@.@.b.b.a.f.2.@.@.2.@.@.2.2.@.@.b.a.@.f.@.@.@.2.",
"2.2.@.@.@.@.2.2.2.2.f.@.@.@.@.@.@.2.@.2.Z.2.h @.2.@.@.@.@.@.@.@.",
"@.@.@.@.2.@.@.2.2.k 2.B x @.@.8.@.@.@.2.Z.f.@.Z.2.x 2.2.2.@.@.2.",
"@.@.@.@.2.@.@.@.f.f.2.2.2.@.@.8.@.2.@.@.@.h y K 2.2.2.2.2.2.2.@.",
"@.@.@.@.@.@.@.@.9 T Q @.@.@.@.@.2.2.@.@.@.t ; a 2.2.@.@.@.@.@.@.",
"2.@.@.@.@.@.@.@.o O 4 D K @.2.2.@.@.@.f.b.K D ` f.f.f.@.@.2.2.2.",
"2.2.@.@.@.@.@.@.4 - a Q b.@.@.w.B w.@.@.b.@.w.B @.@.@.@.@.@.@.@.",
"2.2.@.@.@.@.@.@.T D K b.Z.@.@.Z.@.2.@.f.f.@.@.l @.@.@.@.2.2.@.2.",
"2.2.2.@.2.2.@.2.b.@.@.Z.Z.@.@.2.@.f.2.2.2.@.@.a.@.@.2.2.2.2.2.2.",
"2.2.2.@.2.2.2.2.@.@.@.@.@.@.@.@.@.@.2.B B 2.@.b.@.@.@.2.2.2.2.2.",
"2.2.2.2.2.2.@.@.2.2.2.2.2.2.2.2.@.x L.B B L.@.@.2.2.2.2.@.@.2.2.",
"2.2.2.2.2.2.@.@.2.2.2.@.2.2.2.2.@.K Z.@.8.P.x u 2.2.2.2.@.2.2.2.",
"2.2.@.2.@.@.@.@.2.2.@.@.@.@.@.2.` a I.4 9 Y.@.2.@.@.@.@.@.@.2.2.",
"@.@.@.@.@.@.@.@.@.@.@.@.8.2.2.2.T $ >   . e K w.@.@.@.@.@.@.2.2.",
"@.2.@.2.@.b.b.U.@.@.@.@.@.@.@.@.Q 6 & - D I @.x @.@.@.@.@.@.@.2.",
"8.2.@.@.@.@.K a @.@.@.@.@.@.@.@.b.K D K a.b.2.2.@.@.@.@.@.@.@.2.",
"8.@.@.@.@.@.s % 2.@.@.@.@.@.2.2.2.f.f.b.f.2.2.2.2.2.@.@.@.@.@.@.",
"@.@.@.@.2.f.@.t 2.@.@.@.@.@.@.2.B 2.2.2.2.@.2.2.2.2.2.@.@.@.@.@.",
"@.@.2.@.@.2.b.@.2.2.@.@.@.@.2.2.2.@.w.@.8.8.8.2.2.2.@.@.@.@.2.@.",
"@.@.2.2.x @.2.f.2.2.@.@.@.@.2.2.8.8.@.x @.8.8.@.2.2.@.@.@.@.2.2.",
"@.2.2.x x @.@.@.2.2.2.@.@.@.2.2.@.f.2.@.x @.@.@.2.@.@.@.2.2.2.2.",
"2.2.2.x @.w.2.2.2.2.@.@.@.@.2.2.@.f.f.2.2.2.2.2.@.@.@.@.2.2.2.2."
};
