/* XPM */
static char *_afcd45560f14984c29b877380bed42brZrq2jNeUcfuCyiK[] = {
/* columns rows colors chars-per-pixel */
"32 32 238 2 ",
"   c #695C6D",
".  c #604C71",
"X  c #6D5B75",
"o  c #6D537D",
"O  c #725D74",
"+  c #70567E",
"@  c #766678",
"#  c #7A7477",
"$  c #80747B",
"%  c #764B82",
"&  c #755980",
"*  c #7F5B85",
"=  c #78588A",
"-  c #7D5A95",
";  c #6E5886",
":  c #7A6283",
">  c #7C6D82",
",  c #7C6B89",
"<  c #796586",
"1  c #7D7182",
"2  c #7A7785",
"3  c #7E6592",
"4  c #7D7E90",
"5  c #875D89",
"6  c #805583",
"7  c #845A92",
"8  c #826785",
"9  c #81678B",
"0  c #826B8C",
"q  c #8B678B",
"w  c #887486",
"e  c #8B7B86",
"r  c #82738C",
"t  c #8A748C",
"y  c #857787",
"u  c #927C8E",
"i  c #836497",
"p  c #836A93",
"a  c #8A6B92",
"s  c #8A699B",
"d  c #93679B",
"f  c #8C7594",
"g  c #8C7B93",
"h  c #8B7F9C",
"j  c #887798",
"k  c #93739D",
"l  c #967B9B",
"z  c #997E9D",
"x  c #967A97",
"c  c #8251A3",
"v  c #965DA2",
"b  c #8D69A1",
"n  c #926AA5",
"m  c #9B6DAC",
"M  c #937CA5",
"N  c #9B75AA",
"B  c #9B7FA9",
"V  c #9877A6",
"C  c #9A73B2",
"Z  c #A37FAC",
"A  c #A97CB6",
"S  c #828389",
"D  c #8D828D",
"F  c #8F8F8C",
"G  c #898483",
"H  c #928887",
"J  c #8E8294",
"K  c #8E8D93",
"L  c #938395",
"P  c #998C96",
"I  c #93859C",
"U  c #948B9C",
"Y  c #9A8B9C",
"T  c #948B96",
"R  c #9B949D",
"E  c #96989A",
"W  c #989697",
"Q  c #A18F9D",
"!  c #A5909F",
"~  c #9FA79A",
"^  c #A7A59B",
"/  c #A7A28E",
"(  c #9A84A4",
")  c #9D8CA4",
"_  c #9A83AB",
"`  c #9686A6",
"'  c #9D95A4",
"]  c #8F89A3",
"[  c #A28CA5",
"{  c #A38AAB",
"}  c #AA8CAA",
"|  c #A683A8",
" . c #B087AF",
".. c #A392A4",
"X. c #A39CA4",
"o. c #A493AB",
"O. c #AB94AD",
"+. c #A49AAB",
"@. c #AC9BAC",
"#. c #AD98A6",
"$. c #A483B3",
"%. c #A689B3",
"&. c #AE8CB5",
"*. c #AD8CBA",
"=. c #AD83BB",
"-. c #AB91B3",
";. c #A59CB1",
":. c #A99AB6",
">. c #AC94BA",
",. c #A190B2",
"<. c #B493BB",
"1. c #B39CBB",
"2. c #B698B8",
"3. c #B68FBC",
"4. c #9FA9A5",
"5. c #AAADA4",
"6. c #A4A2AB",
"7. c #ABA9AA",
"8. c #A7A7A9",
"9. c #B2ABAC",
"0. c #B1A6AC",
"q. c #ADBEAC",
"w. c #B8B6AF",
"e. c #AEA4B2",
"r. c #ADA2B9",
"t. c #ACAAB4",
"y. c #B1A3B3",
"u. c #B4AEB4",
"i. c #BCA3BC",
"p. c #BBACBE",
"a. c #B7A9B6",
"s. c #B5B5B3",
"d. c #B9B4B5",
"f. c #BBB4BC",
"g. c #BAB8B9",
"h. c #C09EBF",
"j. c #C3B4BF",
"k. c #C2B9B6",
"l. c #BEC6B9",
"z. c #C1C6B8",
"x. c #B188C5",
"c. c #B59CC4",
"v. c #B596C4",
"b. c #BAA3C3",
"n. c #BEABCB",
"m. c #B8A6C4",
"M. c #BCB5C2",
"N. c #BDBDC4",
"B. c #BCB8C9",
"V. c #C3ABC3",
"C. c #C5ACCC",
"Z. c #C4A7CA",
"A. c #C3B4C4",
"S. c #C4BDC3",
"D. c #C9B3CD",
"F. c #C3BCCC",
"G. c #C9B9C9",
"H. c #D2BBCF",
"J. c #C6A8D2",
"K. c #CAB3DA",
"L. c #C9B6D5",
"P. c #D5BCD6",
"I. c #D7BFDD",
"U. c #D1B4D0",
"Y. c #D6ADD7",
"T. c #D8B8E7",
"R. c #C5C2C6",
"E. c #CACAC5",
"W. c #CEC5CA",
"Q. c #C7C8C9",
"!. c #D4CCCD",
"~. c #D2CEC5",
"^. c #CBD1C3",
"/. c #D6D7CE",
"(. c #C4C1D3",
"). c #CCC3D1",
"_. c #CCCDD5",
"`. c #CEC9DA",
"'. c #D3C4D3",
"]. c #D3C4D9",
"[. c #D4CADA",
"{. c #DCCDDC",
"}. c #D7C7D8",
"|. c #CFD0D4",
" X c #D5D1D5",
".X c #DADDD7",
"XX c #D6D4D9",
"oX c #DCD2DB",
"OX c #D3D9DA",
"+X c #D8DAD7",
"@X c #E7CCDF",
"#X c #E2DEDC",
"$X c #E5D3DE",
"%X c #E2E2DB",
"&X c #E2EADA",
"*X c #D5C6E2",
"=X c #DBD9E3",
"-X c #DED8E7",
";X c #E4CAE9",
":X c #E2DAE3",
">X c #E0D3EB",
",X c #EAD6EC",
"<X c #E8D9E8",
"1X c #E3DBF2",
"2X c #EBDEF3",
"3X c #EDD8F8",
"4X c #F7DEFC",
"5X c #DCE1E7",
"6X c #E3E3E4",
"7X c #E4E4EA",
"8X c #ECE3EC",
"9X c #ECEBEB",
"0X c #E7E7E3",
"qX c #F2E4EE",
"wX c #F2EEED",
"eX c #EDF3EB",
"rX c #EDFCEB",
"tX c #E6F3E9",
"yX c #F4F3EB",
"uX c #F7FBE9",
"iX c #ECE5F2",
"pX c #E9E5F4",
"aX c #F3EDF4",
"sX c #FBEEF3",
"dX c #F3E5F9",
"fX c #FDE6FF",
"gX c #FBEDFD",
"hX c #F1E7F4",
"jX c #EFF5F2",
"kX c #EEFBFA",
"lX c #F2F4F3",
"zX c #F4FDF4",
"xX c #FBFEF4",
"cX c #F2F3F9",
"vX c #FDF5FE",
"bX c #F5FDFC",
"nX c #FEFDFD",
"mX c #FAF0F1",
/* pixels */
"i.nXnXnX:XN gXX.Y nX<XG.nXzXvXn.<.kXk g.nXK.1XnXnXzX$.*XXXa 2XnX",
"k.cXnXxXu.2.nXhXM hXX.[.bXnXvXK P.xXL.O.6XQ yXnXnX.Xx sXnX[ oX~.",
"L R.nXbXlX{ 2XnX-.X U ' 7XnXnX_.O.nXhXs 2 M ^ vXnXnXi.L.nX].; g ",
"> D ~.^.f.( gXE.gXL.c.: t.^.!.:.h.sXQ.lXv.O.@ z.^.~.k {.#XoX<X&.",
"n.%.P # h = : g A.{ &.2.;.# # 3 = p E M.m V.=.' @ w p : 1 r.i.n ",
"vXi.f <XyX8X&.O.y X gXgXB o.vXvX*XN / + L vX;Xp R.vXyXn.B X.. U.",
".Xs >XnXnXnXfXM M.{.+Xd.M vXxXvXnXT.I ].[.#XU J.nXnXxXnX<.' oXW.",
"4.,XS.nXzXxX3XY kXnXG W.*XOXuXnXxXD.b.xX<X4 6Xj.lXnXzXnX&. XbXQ.",
"s.-Xk 8X%XR.f.2.yXnXF.[.1.:.eXoXz.1.M.nXsXp.:X_ ].6X!.S.o.>XnX2X",
"o.  0 P S > M.y.vXxX7X1 9 r W > D A.f.xXvX).O q D E   #.p.-XxXlX",
"9 ].4XO.$.c C 7 ) /.t.r iX!.#.k 7 N - 5.OX] ,.xXy.[ s d a k F.E.",
"V.nXnXxXoX%.nXw._ nX#X{.vXnXgXp.Y.nX` G.nXN.gXvXnXsX$.3XhXf iXxX",
"@.cXnXbXR.o.nXxXx F.r A.xXxXvX;.u.nX>Xh g.t $XbXbX0X( -XxXe.' y.",
"e 4.nXbXsX} dXnXD., @.u  XbXnX!.c.nXyX$.V ;.G jXnXnXb.(.nX,Xf Z ",
"f g m.8.K , _.' gXK.) 9 ..5.7.r T './ nX<.| 8 0.^ 8.0 p.u.S.aXN ",
",Xy.u G @.Z & | +.9 H.T.v.# W <.d - @.I n ;XK.) $ +.$.5 a i.# x.",
"nX{ _ nXnXnXK.( w 1 lXgXq F.uXvXfXc.F @ -.xX(.d <XnXbX>X .J @ '.",
"j...dXnXnXxXdX} 1XmXR.6.1.nXzXnXxX}.o.vX0Xw.Y P.bXnXbXnX2.F.nX[.",
"p.7X;.nXnXlX`.l lXnXh XX'.S.nXcXbX>.1.nX1Xj nXr.9XnXlXqX| ].nXG.",
"s.e.r ^.l.y.'.f.nXxXiXd.( I 6Xu.9.L.'.nXnX).9.0 w. X8.k.p.iXxXxX",
"t , $.y y % { z XX0XE.O l I $ & : ..o.7X&X7.+ } y r + g ` L.%X5X",
"Z pXvX*XD.b m.k L &XN.*.nX9X'.v.N Z.O t.tXo.T.vX;XI.m *.o.3 '.7X",
"H.zXnXnXk.>.xXoX%.nX'.;XnXbXnX..H.vXn.j.nXj.sXnXnX&XB gXxXY 9XeX",
"Y OXnXzX#XA 7XnXl L p 0.tXzXnXN.v.xX1X5 z 2 z.nXbXrXx.K.nXZ.8 J ",
"y ..9XtX=X..aXjX:X*.b.w S.pXrXA.b.rXiX;X$.a.> %XtXyX#.{.nX&Xb.3.",
"Z z R S a 6 O.g +XZ.Z k R F S @ 8 +.F qX$.| b 6.2 G = ` P s.,Xs ",
"vXJ.p d.'.C.0 -.L X qXdX*.e H.{.1.i e.@ B xX;Xl ) }.P.M k y.o b.",
"rXM K.nXxXnX>Xl Y +.wX+Xn ,XnXnXnXC.J o.b.xXr.A vXxXnXaX-.L ! !.",
"6.A.{.nXnXnXhX>.vXnX:.8.V.cXnXzXnX'.1.bX8X[ B.G.xXxXnXnX>.}.nX).",
"N.dXP bXcX#Xg.` 9XvX;..X'.r.bXtX=X+.c.xX7X..xX+.+XbX0X`._ !.nX|.",
"~ f < s.5.S [.V.nXnXeXK 0 V g.R R W.I.nXnX_.y - X.k.e k.D.7XuXxX",
"q =.J.> * % k 9 q.$X9.= C.O.> * 7 q j ~.^.{ v '.f 3 = 0 i W XX(."
};
